<svg xmlns="http://www.w3.org/2000/svg" xmlns:xlink="http://www.w3.org/1999/xlink" zoomAndPan="magnify" preserveAspectRatio="xMidYMid meet" version="1.0" viewBox="76 88.71 226.94 158.25"><defs><g/><clipPath id="03f543e398"><path d="M 76 88.707031 L 176 88.707031 L 176 246.957031 L 76 246.957031 Z M 76 88.707031 " clip-rule="nonzero"/></clipPath><clipPath id="ca7ca5deb7"><path d="M 93 165 L 187.269531 165 L 187.269531 242 L 93 242 Z M 93 165 " clip-rule="nonzero"/></clipPath></defs><g clip-path="url(#03f543e398)"><path fill="#39ab4a" d="M 127.957031 243.71875 C 131.421875 244.929688 134.953125 245.792969 138.453125 246.335938 C 130.851562 246.910156 123.027344 245.953125 115.363281 243.304688 C 85.179688 232.839844 68.769531 199.65625 79.203125 169.34375 C 80.792969 164.71875 82.445312 161.019531 85.308594 156.390625 C 106.109375 118.390625 87.566406 88.75 87.566406 88.75 C 87.566406 88.75 111.578125 106.109375 103.339844 139.355469 C 117.683594 130.292969 135.84375 127.582031 153.113281 133.578125 C 162.050781 136.675781 169.746094 141.746094 175.886719 148.160156 C 171.941406 145.609375 167.617188 143.503906 162.972656 141.875 C 133.238281 131.570312 101.304688 146.023438 91.605469 174.164062 C 81.96875 202.273438 98.222656 233.414062 127.957031 243.71875 Z M 127.957031 243.71875 " fill-opacity="1" fill-rule="nonzero"/></g><path fill="#39ab4a" d="M 134.804688 106.9375 C 135.109375 107.566406 135.351562 108.222656 135.527344 108.898438 C 135.707031 109.574219 135.816406 110.261719 135.859375 110.960938 C 135.898438 111.660156 135.875 112.355469 135.777344 113.046875 C 135.683594 113.742188 135.523438 114.417969 135.296875 115.082031 C 135.066406 115.742188 134.777344 116.375 134.425781 116.980469 C 134.074219 117.582031 133.667969 118.148438 133.203125 118.671875 C 132.742188 119.195312 132.230469 119.667969 131.675781 120.089844 C 131.121094 120.511719 130.53125 120.878906 129.902344 121.183594 C 129.277344 121.492188 128.625 121.730469 127.949219 121.910156 C 127.273438 122.085938 126.589844 122.195312 125.894531 122.238281 C 125.199219 122.28125 124.503906 122.253906 123.8125 122.160156 C 123.121094 122.066406 122.445312 121.902344 121.789062 121.675781 C 121.128906 121.445312 120.496094 121.15625 119.894531 120.804688 C 119.292969 120.449219 118.730469 120.042969 118.207031 119.578125 C 117.6875 119.113281 117.214844 118.601562 116.792969 118.046875 C 116.371094 117.488281 116.007812 116.894531 115.703125 116.265625 C 115.398438 115.636719 115.15625 114.984375 114.980469 114.304688 C 114.804688 113.628906 114.695312 112.941406 114.652344 112.242188 C 114.609375 111.542969 114.636719 110.847656 114.730469 110.15625 C 114.824219 109.460938 114.984375 108.785156 115.214844 108.125 C 115.441406 107.460938 115.730469 106.828125 116.082031 106.226562 C 116.433594 105.621094 116.84375 105.058594 117.304688 104.535156 C 117.769531 104.011719 118.277344 103.535156 118.832031 103.113281 C 119.386719 102.691406 119.980469 102.324219 120.605469 102.019531 C 121.234375 101.714844 121.882812 101.472656 122.558594 101.292969 C 123.234375 101.117188 123.917969 101.007812 124.617188 100.964844 C 125.3125 100.921875 126.003906 100.949219 126.695312 101.042969 C 127.386719 101.140625 128.0625 101.300781 128.722656 101.527344 C 129.382812 101.757812 130.011719 102.046875 130.613281 102.402344 C 131.214844 102.753906 131.777344 103.164062 132.300781 103.625 C 132.820312 104.089844 133.292969 104.601562 133.714844 105.160156 C 134.136719 105.714844 134.5 106.308594 134.804688 106.9375 Z M 134.804688 106.9375 " fill-opacity="1" fill-rule="nonzero"/><g clip-path="url(#ca7ca5deb7)"><path fill="#009f93" d="M 180.464844 213.726562 C 166.441406 232.199219 156.960938 229.550781 148.183594 227.476562 C 148.183594 227.476562 160.109375 226.457031 164.46875 218.703125 C 166.152344 215.703125 162.6875 213.214844 159.0625 216.886719 C 155.433594 220.554688 145.894531 218.003906 140.265625 217.460938 C 134.636719 216.917969 129.546875 215.894531 125.445312 225.085938 C 103.722656 213.40625 93.101562 189.09375 100.957031 166.25 C 101.082031 165.898438 101.210938 165.515625 101.335938 165.167969 C 99.207031 168.386719 97.457031 171.898438 96.152344 175.695312 C 87.34375 201.285156 102.292969 229.773438 129.515625 239.21875 C 139.277344 242.601562 148.820312 242.730469 158.140625 240.207031 C 171.496094 236.570312 181.640625 225.339844 187.269531 211.875 C 184.820312 210.917969 182.023438 211.652344 180.464844 213.726562 Z M 180.464844 213.726562 " fill-opacity="1" fill-rule="nonzero"/></g><g fill="#009f93" fill-opacity="1"><g transform="translate(121.573151, 191.472599)"><g><path d="M 33.203125 -26.09375 L 33.203125 0 L 25.0625 0 L 25.0625 -13.015625 L 21.046875 0 L 14.046875 0 L 10.03125 -13.015625 L 10.03125 0 L 1.84375 0 L 1.84375 -26.09375 L 11.875 -26.09375 L 17.625 -10.4375 L 23.21875 -26.09375 Z M 33.203125 -26.09375 "/></g></g></g><g fill="#009f93" fill-opacity="1"><g transform="translate(156.622751, 191.472599)"><g><path d="M 10.03125 -19.578125 L 10.03125 -16.359375 L 18.140625 -16.359375 L 18.140625 -10.203125 L 10.03125 -10.203125 L 10.03125 -6.53125 L 19.234375 -6.53125 L 19.234375 0 L 1.84375 0 L 1.84375 -26.09375 L 19.234375 -26.09375 L 19.234375 -19.578125 Z M 10.03125 -19.578125 "/></g></g></g><g fill="#009f93" fill-opacity="1"><g transform="translate(177.114414, 191.472599)"><g><path d="M 12.71875 -26.09375 C 15.445312 -26.09375 17.835938 -25.539062 19.890625 -24.4375 C 21.941406 -23.332031 23.519531 -21.796875 24.625 -19.828125 C 25.726562 -17.859375 26.28125 -15.625 26.28125 -13.125 C 26.28125 -10.644531 25.726562 -8.40625 24.625 -6.40625 C 23.519531 -4.414062 21.941406 -2.847656 19.890625 -1.703125 C 17.835938 -0.566406 15.445312 0 12.71875 0 L 1.84375 0 L 1.84375 -26.09375 Z M 11.984375 -7.296875 C 13.828125 -7.296875 15.285156 -7.800781 16.359375 -8.8125 C 17.441406 -9.820312 17.984375 -11.257812 17.984375 -13.125 C 17.984375 -14.988281 17.441406 -16.425781 16.359375 -17.4375 C 15.285156 -18.445312 13.828125 -18.953125 11.984375 -18.953125 L 10.03125 -18.953125 L 10.03125 -7.296875 Z M 11.984375 -7.296875 "/></g></g></g><g fill="#009f93" fill-opacity="1"><g transform="translate(204.498065, 191.472599)"><g><path d="M 10.03125 -26.09375 L 10.03125 0 L 1.84375 0 L 1.84375 -26.09375 Z M 10.03125 -26.09375 "/></g></g></g><g fill="#009f93" fill-opacity="1"><g transform="translate(216.365541, 191.472599)"><g><path d="M 10.03125 -6.1875 L 17.90625 -6.1875 L 17.90625 0 L 1.84375 0 L 1.84375 -26.09375 L 10.03125 -26.09375 Z M 10.03125 -6.1875 "/></g></g></g><g fill="#009f93" fill-opacity="1"><g transform="translate(235.014432, 191.472599)"><g><path d="M 10.03125 -26.09375 L 10.03125 0 L 1.84375 0 L 1.84375 -26.09375 Z M 10.03125 -26.09375 "/></g></g></g><g fill="#009f93" fill-opacity="1"><g transform="translate(246.881908, 191.472599)"><g><path d="M 26.875 0 L 18.6875 0 L 10.03125 -13.125 L 10.03125 0 L 1.84375 0 L 1.84375 -26.09375 L 10.03125 -26.09375 L 18.6875 -12.75 L 18.6875 -26.09375 L 26.875 -26.09375 Z M 26.875 0 "/></g></g></g><g fill="#009f93" fill-opacity="1"><g transform="translate(275.592352, 191.472599)"><g><path d="M 17.625 0 L 10.03125 -11.3125 L 10.03125 0 L 1.84375 0 L 1.84375 -26.09375 L 10.03125 -26.09375 L 10.03125 -15.109375 L 17.515625 -26.09375 L 26.765625 -26.09375 L 17.765625 -13.59375 L 27.34375 0 Z M 17.625 0 "/></g></g></g></svg>